<svg preserveAspectRatio="none" width="100%" height="100%" overflow="visible" style="display: block;" viewBox="0 0 20 20" fill="none" xmlns="http://www.w3.org/2000/svg">
<g id="SVG">
<g id="Vector">
</g>
<path id="Vector_2" d="M17.1512 9.45469L3.95475 2.06466C3.84373 2.00249 3.71638 1.97568 3.58972 1.98783C3.46306 1.99997 3.34312 2.05049 3.24594 2.13262C3.14876 2.21475 3.07896 2.32459 3.04587 2.44746C3.01278 2.57032 3.01799 2.70036 3.06078 2.82018L5.54993 9.78979C5.59848 9.92573 5.59848 10.0743 5.54993 10.2102L3.06078 17.1798C3.01799 17.2996 3.01278 17.4297 3.04587 17.5525C3.07896 17.6754 3.14876 17.7852 3.24594 17.8674C3.34312 17.9495 3.46306 18 3.58972 18.0122C3.71638 18.0243 3.84373 17.9975 3.95475 17.9353L17.1512 10.5453C17.2482 10.491 17.3289 10.4119 17.385 10.316C17.4412 10.2202 17.4708 10.1111 17.4708 10C17.4708 9.8889 17.4412 9.77981 17.385 9.68396C17.3289 9.58811 17.2482 9.50897 17.1512 9.45469Z" stroke="var(--stroke-0, white)" stroke-width="1.875" stroke-linecap="round" stroke-linejoin="round"/>
<path id="Vector_3" d="M5.625 10H10.625" stroke="var(--stroke-0, white)" stroke-width="1.875" stroke-linecap="round" stroke-linejoin="round"/>
</g>
</svg>
