<svg preserveAspectRatio="none" width="100%" height="100%" overflow="visible" style="display: block;" viewBox="0 0 14 14" fill="none" xmlns="http://www.w3.org/2000/svg">
<g id="Icon">
<path id="Vector" d="M7.32812 13.8086C6.6263 13.8086 5.93815 13.6947 5.26367 13.4668C4.59831 13.248 4.00586 12.9268 3.48633 12.5029C2.9668 12.0791 2.54753 11.5664 2.22852 10.9648C1.90951 10.3542 1.75 9.67057 1.75 8.91406C1.75 7.95703 1.95964 7.21647 2.37891 6.69238C2.79818 6.16829 3.17188 5.90625 3.5 5.90625C3.63672 5.90625 3.73926 6.04069 3.80762 6.30957C3.87598 6.57845 3.91016 6.76302 3.91016 6.86328C3.91016 7 3.80534 7.20964 3.5957 7.49219C3.38607 7.77474 3.28125 8.1849 3.28125 8.72266C3.28125 9.27865 3.38151 9.78451 3.58203 10.2402C3.77344 10.7051 4.04004 11.1038 4.38184 11.4365C4.72363 11.7692 5.13151 12.0312 5.60547 12.2227C6.07031 12.4049 6.57161 12.4961 7.10938 12.4961C7.57422 12.4961 8.0026 12.4323 8.39453 12.3047C8.78646 12.168 9.12598 11.972 9.41309 11.7168C9.7002 11.4616 9.92578 11.1471 10.0898 10.7734C10.2539 10.3997 10.3359 9.97135 10.3359 9.48828C10.3359 9.1237 10.2949 8.69987 10.2129 8.2168C10.14 7.74284 10.0078 7.28939 9.81641 6.85645C9.625 6.4235 9.36979 6.05664 9.05078 5.75586C8.74089 5.45508 8.34896 5.30469 7.875 5.30469C7.53776 5.30469 7.24382 5.41634 6.99316 5.63965C6.74251 5.86296 6.61719 6.15234 6.61719 6.50781C6.61719 7.02734 6.73568 7.53776 6.97266 8.03906C7.20964 8.54036 7.32812 9.0599 7.32812 9.59766C7.32812 10.0443 7.19596 10.3633 6.93164 10.5547C6.6582 10.7461 6.36198 10.8076 6.04297 10.7393C5.72396 10.6709 5.42773 10.4818 5.1543 10.1719C4.88997 9.86198 4.75781 9.43359 4.75781 8.88672C4.75781 8.66797 4.77832 8.43783 4.81934 8.19629C4.86035 7.95475 4.93099 7.72917 5.03125 7.51953C4.9401 7.10937 4.82617 6.6582 4.68945 6.16602C4.56185 5.67383 4.43652 5.1748 4.31348 4.66895C4.19043 4.16309 4.08789 3.66406 4.00586 3.17188C3.92383 2.67969 3.88281 2.22396 3.88281 1.80469C3.88281 1.54948 3.89876 1.29199 3.93066 1.03223C3.96257 0.772461 3.99219 0.510417 4.01953 0.246094C4.05599 0.191406 4.07422 0.166341 4.07422 0.170898C4.07422 0.175456 4.11068 0.191406 4.18359 0.21875C4.8763 1.15755 5.29785 1.86849 5.44824 2.35156C5.59863 2.83464 5.83333 3.70052 6.15234 4.94922C6.31641 4.62109 6.58529 4.375 6.95898 4.21094C7.33268 4.04687 7.69271 3.96484 8.03906 3.96484C8.75911 3.96484 9.38802 4.12435 9.92578 4.44336C10.4544 4.76237 10.8896 5.17708 11.2314 5.6875C11.5732 6.19792 11.8307 6.77214 12.0039 7.41016C12.168 8.04818 12.25 8.6862 12.25 9.32422C12.25 10.0078 12.1133 10.6276 11.8398 11.1836C11.5664 11.7305 11.2041 12.1999 10.7529 12.5918C10.3018 12.9837 9.77995 13.2845 9.1875 13.4941C8.59505 13.7038 7.97526 13.8086 7.32812 13.8086Z" fill="var(--fill-0, #222222)"/>
</g>
</svg>
