<svg preserveAspectRatio="none" width="100%" height="100%" overflow="visible" style="display: block;" viewBox="0 0 16 16" fill="none" xmlns="http://www.w3.org/2000/svg">
<g id="SVG">
<path id="Vector" d="M11.5 8C11.5 8.69223 11.2947 9.36892 10.9101 9.9445C10.5256 10.5201 9.97893 10.9687 9.33939 11.2336C8.69985 11.4985 7.99612 11.5678 7.31718 11.4327C6.63825 11.2977 6.01461 10.9644 5.52513 10.4749C5.03564 9.98539 4.7023 9.36175 4.56725 8.68282C4.4322 8.00388 4.50151 7.30015 4.76642 6.66061C5.03133 6.02107 5.47993 5.47444 6.0555 5.08986C6.63108 4.70527 7.30777 4.5 8 4.5C8.92826 4.5 9.8185 4.86875 10.4749 5.52513C11.1313 6.1815 11.5 7.07174 11.5 8Z" stroke="var(--stroke-0, #BABABB)" stroke-linecap="round" stroke-linejoin="round"/>
<path id="Vector_2" d="M11.5 8V9.5C11.5 10.0304 11.7107 10.5391 12.0858 10.9142C12.4609 11.2893 12.9696 11.5 13.5 11.5C14.0304 11.5 14.5391 11.2893 14.9142 10.9142C15.2893 10.5391 15.5 10.0304 15.5 9.5V8C15.4999 6.31066 14.9295 4.67082 13.881 3.34618C12.8326 2.02153 11.3677 1.08967 9.7235 0.701576C8.07934 0.313481 6.3523 0.491886 4.8222 1.20789C3.29209 1.92389 2.04856 3.13554 1.29306 4.64653C0.537562 6.15752 0.314364 7.87934 0.659628 9.53303C1.00489 11.1867 1.89839 12.6754 3.19536 13.7579C4.49233 14.8403 6.1168 15.4532 7.80557 15.4971C9.49434 15.5411 11.1485 15.0135 12.5 14" stroke="var(--stroke-0, #BABABB)" stroke-linecap="round" stroke-linejoin="round"/>
</g>
</svg>
