<svg preserveAspectRatio="none" width="100%" height="100%" overflow="visible" style="display: block;" viewBox="0 0 14 14" fill="none" xmlns="http://www.w3.org/2000/svg">
<g id="Icon">
<path id="Vector" d="M5.49609 0V6.26172H3.39062V8.75H5.49609V10.7188C5.49609 11.2474 5.57357 11.7168 5.72852 12.127C5.88346 12.5371 6.09993 12.8812 6.37793 13.1592C6.65592 13.4372 6.99089 13.6445 7.38281 13.7812C7.77474 13.9271 8.21224 14 8.69531 14C9.14193 14 9.54525 13.9863 9.90527 13.959C10.2653 13.9316 10.5 13.9089 10.6094 13.8906V11.6758H9.29688C8.77734 11.6758 8.44238 11.5641 8.29199 11.3408C8.1416 11.1175 8.06641 10.8281 8.06641 10.4727V8.75H10.3906L10.0625 6.26172H8.06641V0H5.49609Z" fill="var(--fill-0, #222222)"/>
</g>
</svg>
