<svg preserveAspectRatio="none" width="100%" height="100%" overflow="visible" style="display: block;" viewBox="0 0 14 14" fill="none" xmlns="http://www.w3.org/2000/svg">
<g id="Icon" clip-path="url(#clip0_577_6220)">
<path id="Vector" d="M7 10.1445C6.57161 10.1445 6.16602 10.0625 5.7832 9.89844C5.40039 9.73438 5.06543 9.51107 4.77832 9.22852C4.49121 8.94596 4.26562 8.61328 4.10156 8.23047C3.9375 7.84766 3.85547 7.4375 3.85547 7C3.85547 6.5625 3.9375 6.15234 4.10156 5.76953C4.26562 5.38672 4.49121 5.05404 4.77832 4.77148C5.06543 4.48893 5.40039 4.26562 5.7832 4.10156C6.16602 3.9375 6.57161 3.85547 7 3.85547C7.4375 3.85547 7.84766 3.9375 8.23047 4.10156C8.61328 4.26562 8.94596 4.48893 9.22852 4.77148C9.51107 5.05404 9.73438 5.38672 9.89844 5.76953C10.0625 6.15234 10.1445 6.5625 10.1445 7C10.1445 7.4375 10.0625 7.84766 9.89844 8.23047C9.73438 8.61328 9.51107 8.94596 9.22852 9.22852C8.94596 9.51107 8.61328 9.73438 8.23047 9.89844C7.84766 10.0625 7.4375 10.1445 7 10.1445ZM7 4.94922C6.44401 4.94922 5.96322 5.14974 5.55762 5.55078C5.15202 5.95182 4.94922 6.4349 4.94922 7C4.94922 7.55599 5.14974 8.03678 5.55078 8.44238C5.95182 8.84798 6.4349 9.05078 7 9.05078C7.55599 9.05078 8.03678 8.85026 8.44238 8.44922C8.84798 8.04818 9.05078 7.5651 9.05078 7C9.05078 6.44401 8.85026 5.96322 8.44922 5.55762C8.04818 5.15202 7.5651 4.94922 7 4.94922ZM11.0195 10.2812C11.0195 10.0807 10.9489 9.90755 10.8076 9.76172C10.6663 9.61589 10.4909 9.54297 10.2812 9.54297C10.0807 9.54297 9.90755 9.61361 9.76172 9.75488C9.61589 9.89616 9.54297 10.0716 9.54297 10.2812C9.54297 10.4727 9.61361 10.639 9.75488 10.7803C9.89616 10.9215 10.0716 10.9922 10.2812 10.9922C10.4818 10.9922 10.6549 10.9215 10.8008 10.7803C10.9466 10.639 11.0195 10.4727 11.0195 10.2812ZM13.0977 9.51562C13.0703 10.0078 12.9883 10.4704 12.8516 10.9033C12.7148 11.3363 12.4596 11.7305 12.0859 12.0859C11.7305 12.4505 11.3385 12.7035 10.9102 12.8447C10.4818 12.986 10.026 13.0703 9.54297 13.0977C9.28776 13.1068 8.92773 13.1159 8.46289 13.125C8.00716 13.1341 7.52637 13.1387 7.02051 13.1387C6.51465 13.1387 6.0293 13.1341 5.56445 13.125C5.09961 13.125 4.73958 13.1159 4.48438 13.0977C3.99219 13.0703 3.52962 12.9883 3.09668 12.8516C2.66374 12.7148 2.26953 12.4596 1.91406 12.0859C1.54948 11.7305 1.29883 11.3385 1.16211 10.9102C1.02539 10.4818 0.947917 10.026 0.929688 9.54297C0.911458 9.28776 0.897786 8.92773 0.888672 8.46289C0.879557 8.00716 0.875 7.52637 0.875 7.02051C0.875 6.51465 0.879557 6.0293 0.888672 5.56445C0.897786 5.09961 0.911458 4.73958 0.929688 4.48438C0.938802 3.99219 1.01172 3.52962 1.14844 3.09668C1.28516 2.66374 1.54036 2.26953 1.91406 1.91406C2.26953 1.55859 2.66374 1.31022 3.09668 1.16895C3.52962 1.02767 3.99219 0.947917 4.48438 0.929688C4.73958 0.911458 5.09961 0.897786 5.56445 0.888672C6.02018 0.879557 6.50098 0.875 7.00684 0.875C7.5127 0.875 7.99805 0.879557 8.46289 0.888672C8.92773 0.897786 9.28776 0.911458 9.54297 0.929688C10.0169 0.938802 10.4704 1.01172 10.9033 1.14844C11.3363 1.28516 11.7305 1.54036 12.0859 1.91406C12.4505 2.26953 12.7035 2.66374 12.8447 3.09668C12.986 3.52962 13.0703 3.99219 13.0977 4.48438C13.1068 4.73958 13.1159 5.09505 13.125 5.55078C13.1341 6.01562 13.1387 6.4987 13.1387 7C13.1387 7.5013 13.1341 7.98438 13.125 8.44922C13.125 8.90495 13.1159 9.26042 13.0977 9.51562ZM11.7852 3.39062C11.6758 3.11719 11.5208 2.88021 11.3203 2.67969C11.1198 2.47917 10.8828 2.32422 10.6094 2.21484C10.4089 2.14193 10.1536 2.08724 9.84375 2.05078C9.52474 2.01432 9.19206 1.98926 8.8457 1.97559C8.49935 1.96191 8.16211 1.95964 7.83398 1.96875C7.50586 1.96875 7.22786 1.96875 7 1.96875C6.78125 1.96875 6.50781 1.96875 6.17969 1.96875C5.85156 1.95964 5.51432 1.96191 5.16797 1.97559C4.82161 1.98926 4.48893 2.01432 4.16992 2.05078C3.85091 2.08724 3.59115 2.14193 3.39062 2.21484C3.11719 2.32422 2.88021 2.47917 2.67969 2.67969C2.47917 2.88021 2.32422 3.11719 2.21484 3.39062C2.14193 3.59115 2.08724 3.84635 2.05078 4.15625C2.01432 4.47526 1.98926 4.80794 1.97559 5.1543C1.96191 5.50065 1.95964 5.83789 1.96875 6.16602C1.96875 6.49414 1.96875 6.77214 1.96875 7C1.96875 7.22786 1.96875 7.50586 1.96875 7.83398C1.95964 8.16211 1.96191 8.49935 1.97559 8.8457C1.98926 9.19206 2.01432 9.52474 2.05078 9.84375C2.08724 10.1536 2.14193 10.4089 2.21484 10.6094C2.32422 10.8828 2.47917 11.1198 2.67969 11.3203C2.88021 11.5208 3.11719 11.6758 3.39062 11.7852C3.59115 11.8581 3.85547 11.9128 4.18359 11.9492C4.5026 11.9857 4.83301 12.0107 5.1748 12.0244C5.5166 12.0381 5.85156 12.0404 6.17969 12.0312C6.50781 12.0312 6.78125 12.0312 7 12.0312C7.22786 12.0312 7.50586 12.0312 7.83398 12.0312C8.16211 12.0404 8.49935 12.0381 8.8457 12.0244C9.19206 12.0107 9.52474 11.9857 9.84375 11.9492C10.1536 11.9128 10.4089 11.8581 10.6094 11.7852C10.8828 11.6758 11.1198 11.5208 11.3203 11.3203C11.5208 11.1198 11.6758 10.8828 11.7852 10.6094C11.8672 10.4089 11.9264 10.1536 11.9629 9.84375C11.9993 9.52474 12.0221 9.19206 12.0312 8.8457C12.0404 8.49935 12.0449 8.16211 12.0449 7.83398C12.0358 7.50586 12.0312 7.22786 12.0312 7C12.0312 6.77214 12.0358 6.49414 12.0449 6.16602C12.0449 5.83789 12.0404 5.50065 12.0312 5.1543C12.0221 4.80794 11.9993 4.47526 11.9629 4.15625C11.9264 3.84635 11.8672 3.59115 11.7852 3.39062Z" fill="var(--fill-0, #222222)"/>
</g>
<defs>
<clipPath id="clip0_577_6220">
<rect width="14" height="14" fill="white"/>
</clipPath>
</defs>
</svg>
