<svg preserveAspectRatio="none" width="100%" height="100%" overflow="visible" style="display: block;" viewBox="0 0 14 14" fill="none" xmlns="http://www.w3.org/2000/svg">
<g id="Icon" clip-path="url(#clip0_577_6272)">
<path id="Vector" d="M12.7148 10.9375C12.3503 10.9375 12.0039 11.0059 11.6758 11.1426C11.3477 11.2793 11.0628 11.4684 10.8213 11.71C10.5798 11.9515 10.3861 12.2318 10.2402 12.5508C10.1035 12.8698 10.0352 13.2161 10.0352 13.5898C10.0352 13.6992 9.9987 13.7949 9.92578 13.877C9.85286 13.959 9.7526 14 9.625 14H7.4375C7.32812 14 7.23242 13.959 7.15039 13.877C7.06836 13.7949 7.02734 13.6992 7.02734 13.5898V4.59375C7.02734 4.15625 6.87467 3.78255 6.56934 3.47266C6.264 3.16276 5.89714 3.00781 5.46875 3.00781C5.03125 3.00781 4.65755 3.16276 4.34766 3.47266C4.03776 3.78255 3.88281 4.15625 3.88281 4.59375C3.88281 5.01302 4.03776 5.3776 4.34766 5.6875C4.65755 5.9974 5.03125 6.15234 5.46875 6.15234C5.57812 6.15234 5.67383 6.19336 5.75586 6.27539C5.83789 6.35742 5.87891 6.45312 5.87891 6.5625V8.75C5.87891 8.86849 5.83789 8.96647 5.75586 9.04395C5.67383 9.12142 5.57812 9.16016 5.46875 9.16016C4.83073 9.16016 4.23372 9.04167 3.67773 8.80469C3.12174 8.55859 2.63639 8.23047 2.22168 7.82031C1.80697 7.41016 1.47656 6.92708 1.23047 6.37109C0.99349 5.8151 0.875 5.22266 0.875 4.59375C0.875 3.95573 0.99349 3.35872 1.23047 2.80273C1.47656 2.24674 1.80697 1.76139 2.22168 1.34668C2.63639 0.931966 3.12174 0.601562 3.67773 0.355469C4.23372 0.11849 4.83073 0 5.46875 0C6.09766 0 6.6901 0.11849 7.24609 0.355469C7.80208 0.601562 8.28516 0.931966 8.69531 1.34668C9.10547 1.76139 9.43359 2.24674 9.67969 2.80273C9.91667 3.35872 10.0352 3.95573 10.0352 4.59375V8.55859C10.4453 8.35807 10.8737 8.19857 11.3203 8.08008C11.7669 7.96159 12.2318 7.90234 12.7148 7.90234C12.8242 7.90234 12.9199 7.94336 13.002 8.02539C13.084 8.10742 13.125 8.20312 13.125 8.3125V10.5273C13.125 10.6367 13.084 10.7324 13.002 10.8145C12.9199 10.8965 12.8242 10.9375 12.7148 10.9375Z" fill="var(--fill-0, #222222)"/>
</g>
<defs>
<clipPath id="clip0_577_6272">
<rect width="14" height="14" fill="white"/>
</clipPath>
</defs>
</svg>
