<svg preserveAspectRatio="none" width="100%" height="100%" overflow="visible" style="display: block;" viewBox="0 0 14 14" fill="none" xmlns="http://www.w3.org/2000/svg">
<g id="Icon">
<path id="Vector" d="M10.0078 7C10.0078 7.09115 9.9873 7.1709 9.94629 7.23926C9.90527 7.30762 9.84375 7.36458 9.76172 7.41016L5.76953 9.92578C5.6875 9.98047 5.60547 10.0078 5.52344 10.0078C5.44141 10.0078 5.35026 9.98047 5.25 9.92578C5.16797 9.88932 5.10645 9.83464 5.06543 9.76172C5.02441 9.6888 5.00391 9.59766 5.00391 9.48828V4.51172C5.00391 4.40234 5.02441 4.31348 5.06543 4.24512C5.10645 4.17676 5.16797 4.11979 5.25 4.07422C5.28646 4.04688 5.3252 4.02637 5.36621 4.0127C5.40723 3.99902 5.45052 3.99219 5.49609 3.99219C5.55078 3.99219 5.59863 3.99902 5.63965 4.0127C5.68066 4.02637 5.72396 4.04688 5.76953 4.07422L9.76172 6.58984C9.84375 6.6263 9.90527 6.67871 9.94629 6.74707C9.9873 6.81543 10.0078 6.89974 10.0078 7ZM14 7C14 6.75391 14 6.5306 14 6.33008C14 6.12956 14 5.96094 14 5.82422C14 5.6875 13.9932 5.53027 13.9795 5.35254C13.9658 5.1748 13.9453 4.97656 13.918 4.75781C13.9089 4.53906 13.8906 4.33398 13.8633 4.14258C13.8359 3.95117 13.7995 3.77344 13.7539 3.60938C13.7174 3.41797 13.6514 3.24251 13.5557 3.08301C13.46 2.9235 13.3438 2.77995 13.207 2.65234C13.0703 2.51562 12.9222 2.41081 12.7627 2.33789C12.6032 2.26497 12.4323 2.21484 12.25 2.1875C11.9583 2.16016 11.6302 2.13281 11.2656 2.10547C10.901 2.08724 10.5 2.06901 10.0625 2.05078C9.625 2.03255 9.15104 2.01888 8.64062 2.00977C8.13932 2.00065 7.59245 1.99609 7 1.99609C6.41667 1.99609 5.86979 2.00065 5.35938 2.00977C4.84896 2.01888 4.375 2.03255 3.9375 2.05078C3.5 2.06901 3.09896 2.08724 2.73438 2.10547C2.36979 2.13281 2.04167 2.16016 1.75 2.1875C1.57682 2.21484 1.4082 2.26497 1.24414 2.33789C1.08008 2.41081 0.929688 2.51562 0.792969 2.65234C0.65625 2.77083 0.542318 2.91211 0.451172 3.07617C0.360026 3.24023 0.291667 3.41797 0.246094 3.60938C0.209635 3.77344 0.177734 3.95117 0.150391 4.14258C0.123047 4.33398 0.10026 4.53906 0.0820312 4.75781C0.0546875 4.97656 0.0341797 5.1748 0.0205078 5.35254C0.00683594 5.53027 0 5.6875 0 5.82422C0 5.96094 0 6.12956 0 6.33008C0 6.5306 0 6.75391 0 7C0 7.24609 0 7.4694 0 7.66992C0 7.87044 0 8.03906 0 8.17578C0 8.3125 0.00683594 8.46973 0.0205078 8.64746C0.0341797 8.8252 0.0546875 9.02344 0.0820312 9.24219C0.0911458 9.46094 0.109375 9.66602 0.136719 9.85742C0.164062 10.0488 0.200521 10.2266 0.246094 10.3906C0.282552 10.582 0.348633 10.7575 0.444336 10.917C0.540039 11.0765 0.65625 11.2201 0.792969 11.3477C0.929688 11.4844 1.0778 11.5892 1.2373 11.6621C1.39681 11.735 1.56771 11.7852 1.75 11.8125C2.04167 11.8398 2.36979 11.8672 2.73438 11.8945C3.09896 11.9128 3.5 11.931 3.9375 11.9492C4.375 11.9674 4.84896 11.9811 5.35938 11.9902C5.86068 11.9993 6.40755 12.0039 7 12.0039C7.58333 12.0039 8.13021 11.9993 8.64062 11.9902C9.15104 11.9811 9.625 11.9674 10.0625 11.9492C10.5 11.931 10.901 11.9128 11.2656 11.8945C11.6302 11.8672 11.9583 11.8398 12.25 11.8125C12.4232 11.7852 12.5918 11.735 12.7559 11.6621C12.9199 11.5892 13.0703 11.4844 13.207 11.3477C13.3438 11.2292 13.4577 11.0879 13.5488 10.9238C13.64 10.7598 13.7083 10.582 13.7539 10.3906C13.7904 10.2266 13.8223 10.0488 13.8496 9.85742C13.877 9.66602 13.8997 9.46094 13.918 9.24219C13.9453 9.02344 13.9658 8.8252 13.9795 8.64746C13.9932 8.46973 14 8.3125 14 8.17578C14 8.03906 14 7.87044 14 7.66992C14 7.4694 14 7.24609 14 7Z" fill="var(--fill-0, #222222)"/>
</g>
</svg>
