<svg preserveAspectRatio="none" width="100%" height="100%" overflow="visible" style="display: block;" viewBox="0 0 14 14" fill="none" xmlns="http://www.w3.org/2000/svg">
<g id="Icon">
<path id="Vector" d="M13.1523 10.8008C12.9792 10.5547 12.7878 10.3245 12.5781 10.1104C12.3685 9.89616 12.1406 9.69792 11.8945 9.51562C11.8945 9.47917 11.8945 9.43359 11.8945 9.37891C11.8945 9.32422 11.8945 9.26042 11.8945 9.1875C11.8945 8.85026 11.8717 8.51074 11.8262 8.16895C11.7806 7.82715 11.7031 7.49219 11.5938 7.16406C11.5026 6.82682 11.3818 6.49414 11.2314 6.16602C11.0811 5.83789 10.901 5.52344 10.6914 5.22266C10.5 4.91276 10.2835 4.61882 10.042 4.34082C9.80046 4.06283 9.54297 3.80078 9.26953 3.55469C8.98698 3.32682 8.67936 3.11719 8.34668 2.92578C8.014 2.73438 7.64714 2.57031 7.24609 2.43359C6.85417 2.28776 6.44629 2.17839 6.02246 2.10547C5.59863 2.03255 5.16797 1.99609 4.73047 1.99609C4.01953 1.99609 3.34277 2.0918 2.7002 2.2832C2.05762 2.47461 1.4401 2.76172 0.847656 3.14453C0.938802 3.13542 1.03451 3.12402 1.13477 3.11035C1.23503 3.09668 1.33984 3.08984 1.44922 3.08984C2.03255 3.08984 2.58626 3.18327 3.11035 3.37012C3.63444 3.55697 4.12891 3.82812 4.59375 4.18359C4.32031 4.18359 4.06055 4.22461 3.81445 4.30664C3.56836 4.38867 3.33594 4.51172 3.11719 4.67578C2.89844 4.83984 2.71387 5.02441 2.56348 5.22949C2.41309 5.43457 2.29688 5.66927 2.21484 5.93359C2.30599 5.92448 2.39258 5.91309 2.47461 5.89941C2.55664 5.88574 2.63411 5.87891 2.70703 5.87891C2.81641 5.87891 2.92578 5.88574 3.03516 5.89941C3.14453 5.91309 3.25391 5.94271 3.36328 5.98828C3.08073 6.04297 2.81641 6.14323 2.57031 6.28906C2.32422 6.4349 2.10547 6.61719 1.91406 6.83594C1.72266 7.0638 1.5791 7.31445 1.4834 7.58789C1.3877 7.86133 1.33984 8.14844 1.33984 8.44922V8.47656C1.51302 8.38542 1.69531 8.3125 1.88672 8.25781C2.07812 8.20312 2.27865 8.17578 2.48828 8.17578C2.3151 8.28516 2.16016 8.41276 2.02344 8.55859C1.88672 8.70443 1.76823 8.86849 1.66797 9.05078C1.55859 9.24219 1.48112 9.43815 1.43555 9.63867C1.38997 9.83919 1.36719 10.0443 1.36719 10.2539C1.36719 10.4818 1.39453 10.7051 1.44922 10.9238C1.50391 11.1426 1.58594 11.3477 1.69531 11.5391C2.00521 11.1562 2.35156 10.8099 2.73438 10.5C3.11719 10.1901 3.53646 9.91667 3.99219 9.67969C4.4388 9.45182 4.9082 9.26953 5.40039 9.13281C5.89258 8.99609 6.39844 8.91406 6.91797 8.88672C6.89062 8.99609 6.87012 9.09863 6.85645 9.19434C6.84277 9.29004 6.83594 9.38802 6.83594 9.48828C6.83594 9.82552 6.89746 10.1445 7.02051 10.4453C7.14355 10.7461 7.32812 11.0195 7.57422 11.2656C7.82031 11.5117 8.09375 11.6963 8.39453 11.8193C8.69531 11.9424 9.02344 12.0039 9.37891 12.0039C9.73438 12.0039 10.0671 11.9378 10.377 11.8057C10.6868 11.6735 10.9648 11.4753 11.2109 11.2109C11.4935 11.2656 11.7669 11.3408 12.0312 11.4365C12.2956 11.5322 12.5599 11.6576 12.8242 11.8125C12.7331 11.5117 12.5918 11.2451 12.4004 11.0127C12.209 10.7803 11.9766 10.582 11.7031 10.418C11.9492 10.4453 12.1908 10.4909 12.4277 10.5547C12.6647 10.6185 12.9062 10.7005 13.1523 10.8008Z" fill="var(--fill-0, #222222)"/>
</g>
</svg>
